<?xml version="1.0" encoding="UTF-8"?>
<svg id="Layer_2" data-name="Layer 2" xmlns="http://www.w3.org/2000/svg" viewBox="0 0 470.77 188.79">
  <defs>
    <style>
      .cls-1 {
        fill: #fff;
      }

      .cls-2 {
        fill: #007bca;
      }
    </style>
  </defs>
  <g id="Layer_1-2" data-name="Layer 1">
    <path class="cls-2" d="M326.19,0h-181.61c-22.91,0-45.2,7.42-63.55,21.15L10.07,74.27c-13.43,10.05-13.43,30.19,0,40.24l70.96,53.12c18.34,13.73,40.63,21.15,63.55,21.15h181.61c22.91,0,45.2-7.42,63.55-21.15l70.96-53.12c13.43-10.05,13.43-30.19,0-40.24l-70.96-53.12C371.4,7.42,349.1,0,326.19,0Z"/>
    <g>
      <path class="cls-1" d="M100.52,110.5c4.85,4.48,12.18,8.71,20.04,8.71,4.58,0,7.33-1.41,8.77-2.94,1.31-1.28,2.23-3.2,2.23-5.38,0-1.66-.65-3.58-2.49-5.12-2.23-1.92-5.63-2.82-11.26-4.48l-5.89-1.79c-3.67-1.15-9.04-3.07-12.57-6.92-4.45-4.74-4.98-10.76-4.98-15.11,0-10.5,4.19-16.9,7.99-20.62,4.45-4.35,11.79-8.07,22.39-8.07,8.64,0,18.73,2.69,26.98,6.91l-9.04,17.29c-6.81-5.25-11.92-5.76-14.93-5.76-2.23,0-5.24.51-7.46,2.56-1.31,1.28-2.23,2.69-2.23,4.61,0,1.54.26,2.69,1.18,3.84.65.77,2.23,2.31,7.6,3.84l6.94,2.05c5.5,1.67,11.26,3.59,15.85,8.45,4.45,4.61,5.63,9.35,5.63,15.24,0,7.81-1.96,15.37-8.25,21.51-7.46,7.3-16.5,8.71-25.8,8.71-5.5,0-10.74-.51-17.15-2.82-1.44-.51-6.94-2.56-13.23-6.79l9.69-17.93Z"/>
      <path class="cls-1" d="M192.18,107.81v28.3h-22.65V50.7h36.14c7.6,0,15.45,1.41,22.13,7.68,6.81,6.4,8.12,13.57,8.12,20.74,0,6.79-.92,14.73-7.73,21.26s-14.93,7.43-21.74,7.43h-14.27ZM192.18,89.88h7.59c2.36,0,6.81-.26,9.56-2.69,2.75-2.3,2.88-5.76,2.88-7.81,0-2.31-.26-5.38-2.62-7.68-2.62-2.69-6.81-3.07-9.69-3.07h-7.73v21.26Z"/>
      <path class="cls-1" d="M270.61,50.7v85.41h-22.65V50.7h22.65Z"/>
      <path class="cls-1" d="M288.94,136.11V50.7h22.65l41.77,52.25v-52.25h22.65v85.41h-22.65l-41.77-52.25v52.25h-22.65Z"/>
    </g>
  </g>
</svg>