<?xml version="1.0" encoding="UTF-8"?>
<svg id="Layer_2" data-name="Layer 2" xmlns="http://www.w3.org/2000/svg" viewBox="0 0 615.38 59.47">
  <defs>
    <style>
      .cls-1 {
        fill: #da291c;
      }

      .cls-2 {
        fill: #003da5;
      }
    </style>
  </defs>
  <g id="svg4655">
    <g>
      <g id="layer1">
        <g id="g4747">
          <path id="path4662" class="cls-2" d="M56.8.4H0v28.4c0,15.7,12.7,28.4,28.4,28.4h28.4V.4Z"/>
          <polygon id="polygon4664" class="cls-1" points="29.8 8.9 32.8 14.6 36 13.6 34.5 22.7 39.2 18.8 40.3 21.1 45.1 20.5 44 26.2 45.8 27.5 38.1 34.6 38.4 37.6 31.4 37.1 31.3 39 31.4 45.8 29.7 45.9 27.9 45.9 28.2 38.9 28.2 37.1 21 37.7 21.5 34.6 13.7 27.7 15.3 26.1 14.1 19.9 19.2 21 20.2 18.8 24.8 23.2 23.3 13.5 26.7 14.5 29.8 8.9"/>
        </g>
      </g>
      <g>
        <path class="cls-1" d="M61.49,58.2V1.53h19.71v17.59c0,2.55-.08,4.59-.42,7.14h.42c1.19-3.23,1.95-4.5,2.97-6.37L93.95,1.53h22.26l-17.67,27.78,19.54,28.89h-23.79l-10.37-18.18c-1.02-1.7-1.95-3.74-2.72-5.44h-.42c.34,1.95.42,3.48.42,5.35v18.27h-19.71Z"/>
        <path class="cls-1" d="M124.37,58.2V1.53h19.63l13.17,21.41c2.12,3.4,3.48,5.61,5.35,10.03h.59c-.85-3.57-1.78-9.26-1.78-13.42V1.53h19.71v56.67h-19.71l-14.1-22.34c-1.27-2.04-2.8-5.01-3.91-7.39h-.59c.59,3.06,1.27,7.9,1.27,10.45v19.29h-19.63Z"/>
        <path class="cls-1" d="M244.84,50.38c-4.84,4.93-12.74,9.09-23.53,9.09s-18.69-4.16-23.53-9.09c-4.42-4.5-7.9-11.47-7.9-20.56s3.48-15.97,7.9-20.48c4.84-4.93,12.74-9.09,23.53-9.09s18.69,4.16,23.53,9.09c4.42,4.5,7.9,11.47,7.9,20.48s-3.48,16.06-7.9,20.56ZM213.92,21.41c-2.04,2.12-3.23,5.44-3.23,8.5,0,3.23,1.19,6.37,3.23,8.41,1.7,1.7,4.25,2.89,7.39,2.89s5.69-1.19,7.39-2.89c1.87-1.87,3.23-4.84,3.23-8.41s-1.19-6.54-3.23-8.5c-1.53-1.53-3.99-2.89-7.39-2.89-3.65,0-6.03,1.44-7.39,2.89Z"/>
        <path class="cls-1" d="M255.89,1.53h21.33l6.2,26.85c.42,1.95.93,3.65.93,6.97h.51c.17-3.57.68-6.54,1.44-9.52l6.2-24.3h15.8l6.54,25.83c.51,2.04,1.02,5.78,1.19,7.99h.42c.08-3.65.59-6.12,1.27-9.09l5.86-24.72h21.41l-19.97,56.67h-17.93l-5.35-23.11c-.51-2.29-.93-4.93-1.1-7.73h-.68c-.08,1.87-.42,5.95-.85,7.73l-5.86,23.11h-17.5L255.89,1.53Z"/>
        <path d="M350.71,58.2V1.53h37.81v16.14h-17.25v5.78h15.12v14.95h-15.12v19.8h-20.56Z"/>
        <path d="M396.76,58.2V1.53h25.57c5.95,0,12.15.68,17.33,5.86,2.89,2.89,5.35,7.22,5.35,13.93,0,5.01-1.53,8.16-3.14,10.11-1.7,2.12-4.5,3.82-7.82,4.5v.51c1.1.59,2.21,1.44,2.97,2.63l12.74,19.12h-23.7l-8.16-16.57c-.25-.59-.51-.85-.76-1.78l-.34.17v18.18h-20.05ZM416.81,26.76h2.38c1.19,0,3.06-.17,4.33-1.27.68-.59,1.44-1.7,1.44-3.48,0-1.27-.34-2.55-1.1-3.4-.68-.76-1.78-1.53-3.48-1.53h-3.57v9.69Z"/>
        <path d="M457.17,58.2V1.53h20.56v56.67h-20.56Z"/>
        <path d="M489.12,58.2V1.53h20.56v38.4h17.33v18.27h-37.89Z"/>
        <path d="M533.89,58.2V1.53h20.56v38.4h17.33v18.27h-37.89Z"/>
      </g>
      <path id="path4674" d="M600.28,22.2l-4.7-1.1c-1.6-.4-4.1-.7-4.1-2.8,0-2.3,2.6-3,4.4-3,4.4,0,8.5,1.3,12,3.7l5.6-14c-5.6-3.4-11.5-5-18-5-12.4,0-24.7,7.5-24.7,21,0,8.9,6.8,13.7,14.9,15.1l4.1.8c1.9.4,4.6.6,4.6,3.2s-3.2,3.4-5.3,3.4c-4.8,0-9.2-.6-12.9-3.5l-.5-.4v18.3c5.7.2,8.3.9,13.4.9l-.1-.1c.6,0,1.2.1,1.7.1,12.3,0,24.7-6.7,24.7-20.3,0-9.7-6.4-14.4-15.1-16.3"/>
    </g>
  </g>
</svg>