<svg height="2472" viewBox="0 0 94.672 93.618" width="2500" xmlns="http://www.w3.org/2000/svg"><g fill="none" fill-rule="evenodd"><path d="M94.669 0H0v46.809c0 25.877 21.167 46.809 47.332 46.809h47.34V0z" fill="#003da5"/><path d="M67.168 34.118l7.998-.99-1.833 9.396 3 2.142L63.5 56.37 64 61.313l-11.665-.824-.165 3.132.165 11.207-2.835.165h-3l.499-11.537v-2.967l-12 .989.833-5.11-13-11.372 2.666-2.637-1.999-10.219 8.5 1.813 1.666-3.626 7.668 7.252-2.501-15.988 5.67 1.649 5.167-9.23 4.998 9.395 5.332-1.649-2.497 14.999 7.829-6.428z" fill="#da291c"/></g></svg>